 <svg version="1.0" xmlns="http://www.w3.org/2000/svg"  width="150.000000pt" height="150.000000pt" viewBox="0 0 150.000000 150.000000"  preserveAspectRatio="xMidYMid meet">  <g transform="translate(0.000000,150.000000) scale(0.100000,-0.100000)" fill="#000000" stroke="none"> <path d="M300 934 c-19 -3 -67 -11 -107 -20 -71 -15 -72 -16 -79 -51 -9 -49 2 -140 21 -169 21 -33 86 -73 165 -102 74 -27 192 -34 251 -14 45 16 101 74 129 135 22 47 23 47 70 47 l49 0 25 -53 c31 -66 92 -123 143 -134 108 -23 243 7 350 77 43 28 53 41 62 76 12 47 14 116 5 151 -13 46 -264 74 -394 44 -30 -8 -87 -29 -127 -47 -92 -43 -130 -43 -224 0 -106 48 -237 71 -339 60z m262 -84 c31 -11 66 -29 78 -38 20 -16 20 -19 5 -68 -18 -61 -45 -98 -88 -121 -44 -24 -167 -23 -229 0 -51 20 -114 81 -124 122 -6 24 0 92 9 102 3 2 33 10 68 18 86 20 208 13 281 -15z m652 15 c38 -8 74 -20 78 -27 5 -7 7 -37 4 -67 -9 -102 -104 -166 -246 -165 -83 0 -124 16 -159 60 -23 30 -54 121 -45 135 10 16 87 52 139 65 68 17 147 16 229 -1z m-1025 -12 c-9 -10 -14 -40 -13 -80 0 -58 -1 -62 -12 -41 -17 29 -18 110 -2 126 7 7 18 12 26 12 12 0 12 -2 1 -17z m1151 2 c9 -10 11 -32 7 -65 -9 -78 -22 -87 -22 -16 0 39 -5 69 -14 79 -11 15 -11 17 2 17 8 0 20 -7 27 -15z"/> </g> </svg> 