<svg width="250" height="250" viewBox="0 0 250 250" fill="none" xmlns="http://www.w3.org/2000/svg">
<rect width="250" height="250" fill="white"/>
<path d="M149.703 123.373C149.703 123.373 147.656 129.875 149.703 132.718C151.75 135.562 217.269 115.632 236 128.046C236 128.046 223.29 106.685 149.703 123.373Z" fill="#1D1D1D"/>
<path d="M101.297 123.373C101.297 123.373 103.344 129.875 101.297 132.718C99.2496 135.562 33.7311 115.632 15 128.046C15 128.046 27.7102 106.685 101.297 123.373Z" fill="#1D1D1D"/>
<path d="M149.703 123.373C149.703 123.373 147.656 129.875 149.703 132.718C151.75 135.562 217.269 115.632 236 128.046C236 128.046 223.29 106.685 149.703 123.373Z" stroke="#1D1D1D" stroke-width="5" stroke-miterlimit="10" stroke-linecap="round" stroke-linejoin="round"/>
<path d="M101.297 123.373C101.297 123.373 103.344 129.875 101.297 132.718C99.2496 135.562 33.7311 115.632 15 128.046C15 128.046 27.7102 106.685 101.297 123.373Z" stroke="#1D1D1D" stroke-width="5" stroke-miterlimit="10" stroke-linecap="round" stroke-linejoin="round"/>
</svg>
