<svg width="250" height="250" viewBox="0 0 250 250" fill="none" xmlns="http://www.w3.org/2000/svg">
<rect width="250" height="250" fill="white"/>
<path d="M201.57 107.428C201.57 140.697 189.17 143.677 184.926 143.952C180.682 144.226 167.181 144.458 167.181 110.654" fill="#1D1D1D"/>
<path d="M48.4159 107.428C48.4159 140.697 60.8153 143.677 65.0595 143.952C69.3038 144.226 82.8041 144.458 82.8041 110.654" fill="#1D1D1D"/>
<path d="M201.57 107.428C201.57 140.697 189.17 143.677 184.926 143.952C180.682 144.226 167.181 144.458 167.181 110.654M149.437 126.392C149.437 126.392 152.754 107.761 190.112 107.023C227.47 106.286 225.992 123.267 225.992 123.267M48.4159 107.428C48.4159 140.697 60.8153 143.677 65.0595 143.952C69.3038 144.226 82.8041 144.458 82.8041 110.654M100.563 126.392C100.563 126.392 97.246 107.761 59.8882 107.023C22.5304 106.286 24.0079 123.267 24.0079 123.267" stroke="#1D1D1D" stroke-width="5" stroke-miterlimit="10" stroke-linecap="round" stroke-linejoin="round"/>
</svg>
