<?xml version="1.0" encoding="UTF-8"?>
<!DOCTYPE svg PUBLIC "-//W3C//DTD SVG 1.1//EN" "http://www.w3.org/Graphics/SVG/1.1/DTD/svg11.dtd">
<svg xmlns="http://www.w3.org/2000/svg" version="1.1" width="46px" height="46px" style="shape-rendering:geometricPrecision; text-rendering:geometricPrecision; image-rendering:optimizeQuality; fill-rule:evenodd; clip-rule:evenodd" xmlns:xlink="http://www.w3.org/1999/xlink">
<g><path style="opacity:0.918" fill="#c3a366" d="M 25.5,3.5 C 25.5,3.83333 25.5,4.16667 25.5,4.5C 23.8333,4.5 22.1667,4.5 20.5,4.5C 20.5,4.16667 20.5,3.83333 20.5,3.5C 22.1667,2.16667 23.8333,2.16667 25.5,3.5 Z"/></g>
<g><path style="opacity:1" fill="#322403" d="M 20.5,4.5 C 22.1667,4.5 23.8333,4.5 25.5,4.5C 26.3007,6.04181 26.634,7.70848 26.5,9.5C 25.8333,8.5 25.1667,7.5 24.5,6.5C 22.8716,5.14719 21.5383,5.48052 20.5,7.5C 19.6618,7.15829 19.3284,6.49162 19.5,5.5C 20.1667,5.5 20.5,5.16667 20.5,4.5 Z"/></g>
<g><path style="opacity:0.224" fill="#f6e6c3" d="M 20.5,3.5 C 20.5,3.83333 20.5,4.16667 20.5,4.5C 20.5,5.16667 20.1667,5.5 19.5,5.5C 18.596,6.20895 18.2627,7.20895 18.5,8.5C 17.4017,7.39907 17.235,6.06574 18,4.5C 18.6708,3.74756 19.5041,3.41423 20.5,3.5 Z"/></g>
<g><path style="opacity:0.808" fill="#c6a561" d="M 19.5,5.5 C 19.3284,6.49162 19.6618,7.15829 20.5,7.5C 20.5,7.83333 20.5,8.16667 20.5,8.5C 20.5,8.83333 20.5,9.16667 20.5,9.5C 19.5084,9.67158 18.8417,9.33825 18.5,8.5C 18.2627,7.20895 18.596,6.20895 19.5,5.5 Z"/></g>
<g><path style="opacity:0.224" fill="#f4e1b9" d="M 24.5,6.5 C 24.5,7.5 24.5,8.5 24.5,9.5C 23.5,9.5 22.5,9.5 21.5,9.5C 21.5,9.16667 21.5,8.83333 21.5,8.5C 21.1667,8.5 20.8333,8.5 20.5,8.5C 20.5,8.16667 20.5,7.83333 20.5,7.5C 21.5383,5.48052 22.8716,5.14719 24.5,6.5 Z M 21.5,8.5 C 21.7828,7.71087 22.2828,7.0442 23,6.5C 23.5281,7.81602 23.0281,8.48269 21.5,8.5 Z"/></g>
<g><path style="opacity:0.463" fill="#e1c385" d="M 25.5,3.5 C 29.0056,6.05493 29.339,9.05493 26.5,12.5C 27.8569,14.1856 29.1902,15.8523 30.5,17.5C 30.5,18.1667 30.5,18.8333 30.5,19.5C 27.8544,17.5211 25.5211,15.1878 23.5,12.5C 24.7701,11.7124 25.7701,10.7124 26.5,9.5C 26.634,7.70848 26.3007,6.04181 25.5,4.5C 25.5,4.16667 25.5,3.83333 25.5,3.5 Z"/></g>
<g><path style="opacity:1" fill="#4a360a" d="M 24.5,6.5 C 25.1667,7.5 25.8333,8.5 26.5,9.5C 25.7701,10.7124 24.7701,11.7124 23.5,12.5C 25.5211,15.1878 27.8544,17.5211 30.5,19.5C 33.5,21.8333 36.1667,24.5 38.5,27.5C 38.1667,27.5 37.8333,27.5 37.5,27.5C 36.8333,27.1667 36.1667,26.8333 35.5,26.5C 34.5,24.8333 33.1667,23.5 31.5,22.5C 29.5,20.8333 27.5,19.1667 25.5,17.5C 24.7377,15.7376 23.4044,14.7376 21.5,14.5C 21.1667,14.5 20.8333,14.5 20.5,14.5C 21.3007,12.9582 21.634,11.2915 21.5,9.5C 22.5,9.5 23.5,9.5 24.5,9.5C 24.5,8.5 24.5,7.5 24.5,6.5 Z"/></g>
<g><path style="opacity:1" fill="#ecab00" d="M 21.5,14.5 C 23.4044,14.7376 24.7377,15.7376 25.5,17.5C 23.5,18.8333 21.5,18.8333 19.5,17.5C 20.1667,16.5 20.8333,15.5 21.5,14.5 Z"/></g>
<g><path style="opacity:0.678" fill="#eacc87" d="M 20.5,9.5 C 20.8333,9.5 21.1667,9.5 21.5,9.5C 21.634,11.2915 21.3007,12.9582 20.5,14.5C 15.412,19.5973 10.0787,24.264 4.5,28.5C 3.83333,28.5 3.16667,28.5 2.5,28.5C 9.24113,22.7618 15.2411,16.4285 20.5,9.5 Z"/></g>
<g><path style="opacity:1" fill="#d99b00" d="M 19.5,17.5 C 21.5,18.8333 23.5,18.8333 25.5,17.5C 27.5,19.1667 29.5,20.8333 31.5,22.5C 29.7354,23.4614 27.7354,23.7947 25.5,23.5C 25.5,23.1667 25.5,22.8333 25.5,22.5C 26.404,21.791 26.7373,20.791 26.5,19.5C 23.3019,18.9644 20.6353,19.631 18.5,21.5C 17.6618,21.1583 17.3284,20.4916 17.5,19.5C 17.8333,18.5 18.5,17.8333 19.5,17.5 Z"/></g>
<g><path style="opacity:0.604" fill="#ecce94" d="M 30.5,17.5 C 35.2046,22.2068 40.2046,26.5401 45.5,30.5C 45.5,32.8333 45.5,35.1667 45.5,37.5C 44.8333,37.5 44.1667,37.5 43.5,37.5C 43.5,37.1667 43.5,36.8333 43.5,36.5C 44.5983,35.3991 44.765,34.0657 44,32.5C 42.2962,30.6266 40.4628,28.9599 38.5,27.5C 36.1667,24.5 33.5,21.8333 30.5,19.5C 30.5,18.8333 30.5,18.1667 30.5,17.5 Z"/></g>
<g><path style="opacity:1" fill="#594107" d="M 20.5,14.5 C 20.8333,14.5 21.1667,14.5 21.5,14.5C 20.8333,15.5 20.1667,16.5 19.5,17.5C 18.5,17.8333 17.8333,18.5 17.5,19.5C 15.8333,20.5 14.5,21.8333 13.5,23.5C 10.9108,24.4194 8.91083,26.086 7.5,28.5C 5.08605,29.9108 3.41938,31.9108 2.5,34.5C 2.5,34.8333 2.5,35.1667 2.5,35.5C 2.5,35.8333 2.5,36.1667 2.5,36.5C 1.38705,35.0536 1.22039,33.3869 2,31.5C 3.04499,30.6266 3.87833,29.6266 4.5,28.5C 10.0787,24.264 15.412,19.5973 20.5,14.5 Z"/></g>
<g><path style="opacity:1" fill="#2d2105" d="M 25.5,22.5 C 24.88,20.0233 23.88,20.0233 22.5,22.5C 21.1395,22.2124 19.8062,21.879 18.5,21.5C 20.6353,19.631 23.3019,18.9644 26.5,19.5C 26.7373,20.791 26.404,21.791 25.5,22.5 Z"/></g>
<g><path style="opacity:1" fill="#f0ad00" d="M 17.5,19.5 C 17.3284,20.4916 17.6618,21.1583 18.5,21.5C 18.5,22.8333 19.1667,23.5 20.5,23.5C 20.5,23.8333 20.5,24.1667 20.5,24.5C 19.8333,24.5 19.1667,24.5 18.5,24.5C 16.8333,24.5 15.1667,24.5 13.5,24.5C 13.5,24.1667 13.5,23.8333 13.5,23.5C 14.5,21.8333 15.8333,20.5 17.5,19.5 Z"/></g>
<g><path style="opacity:1" fill="#785602" d="M 25.5,22.5 C 25.5,22.8333 25.5,23.1667 25.5,23.5C 23.8333,23.5 22.1667,23.5 20.5,23.5C 19.1667,23.5 18.5,22.8333 18.5,21.5C 19.8062,21.879 21.1395,22.2124 22.5,22.5C 23.88,20.0233 24.88,20.0233 25.5,22.5 Z"/></g>
<g><path style="opacity:1" fill="#ce8900" d="M 31.5,22.5 C 33.1667,23.5 34.5,24.8333 35.5,26.5C 34.1667,26.5 32.8333,26.5 31.5,26.5C 29.7211,24.6565 27.3878,23.9898 24.5,24.5C 23.1667,24.5 21.8333,24.5 20.5,24.5C 20.5,24.1667 20.5,23.8333 20.5,23.5C 22.1667,23.5 23.8333,23.5 25.5,23.5C 27.7354,23.7947 29.7354,23.4614 31.5,22.5 Z"/></g>
<g><path style="opacity:1" fill="#d85700" d="M 18.5,24.5 C 19.1667,24.5 19.8333,24.5 20.5,24.5C 21.8333,24.5 23.1667,24.5 24.5,24.5C 23.9094,25.1515 23.2427,25.8182 22.5,26.5C 22.6236,27.1067 22.9569,27.44 23.5,27.5C 21.3926,28.4682 19.0593,28.8016 16.5,28.5C 15.5084,28.6716 14.8417,28.3382 14.5,27.5C 16.604,27.7989 18.604,27.4656 20.5,26.5C 19.7573,25.8182 19.0906,25.1515 18.5,24.5 Z"/></g>
<g><path style="opacity:1" fill="#e5a600" d="M 13.5,23.5 C 13.5,23.8333 13.5,24.1667 13.5,24.5C 13.5569,25.609 13.8902,26.609 14.5,27.5C 14.8417,28.3382 15.5084,28.6716 16.5,28.5C 16.5,28.8333 16.5,29.1667 16.5,29.5C 16.1667,29.5 15.8333,29.5 15.5,29.5C 14.0413,29.4326 12.7079,29.7659 11.5,30.5C 11.719,29.325 11.3857,28.325 10.5,27.5C 9.58317,28.1272 8.58317,28.4606 7.5,28.5C 8.91083,26.086 10.9108,24.4194 13.5,23.5 Z"/></g>
<g><path style="opacity:1" fill="#d03202" d="M 13.5,24.5 C 15.1667,24.5 16.8333,24.5 18.5,24.5C 19.0906,25.1515 19.7573,25.8182 20.5,26.5C 18.604,27.4656 16.604,27.7989 14.5,27.5C 13.8902,26.609 13.5569,25.609 13.5,24.5 Z"/></g>
<g><path style="opacity:1" fill="#cd3701" d="M 24.5,24.5 C 27.3878,23.9898 29.7211,24.6565 31.5,26.5C 31.1667,27.1667 30.8333,27.8333 30.5,28.5C 28.1132,27.6871 25.7799,27.3538 23.5,27.5C 22.9569,27.44 22.6236,27.1067 22.5,26.5C 23.2427,25.8182 23.9094,25.1515 24.5,24.5 Z"/></g>
<g><path style="opacity:1" fill="#f1b100" d="M 11.5,30.5 C 10.3263,31.5137 9.6596,32.847 9.5,34.5C 9.16667,34.5 8.83333,34.5 8.5,34.5C 7.85917,33.5178 7.19251,32.5178 6.5,31.5C 7.12723,30.5832 7.46056,29.5832 7.5,28.5C 8.58317,28.4606 9.58317,28.1272 10.5,27.5C 11.3857,28.325 11.719,29.325 11.5,30.5 Z"/></g>
<g><path style="opacity:1" fill="#c08100" d="M 23.5,27.5 C 25.7799,27.3538 28.1132,27.6871 30.5,28.5C 29.5,29.1667 28.5,29.8333 27.5,30.5C 23.9009,29.6561 20.2343,29.3227 16.5,29.5C 16.5,29.1667 16.5,28.8333 16.5,28.5C 19.0593,28.8016 21.3926,28.4682 23.5,27.5 Z"/></g>
<g><path style="opacity:0.525" fill="#ddbc7a" d="M 2.5,28.5 C 3.16667,28.5 3.83333,28.5 4.5,28.5C 3.87833,29.6266 3.04499,30.6266 2,31.5C 1.22039,33.3869 1.38705,35.0536 2.5,36.5C 16.1667,36.5 29.8333,36.5 43.5,36.5C 43.5,36.8333 43.5,37.1667 43.5,37.5C 29.6728,38.6607 15.6728,38.8273 1.5,38C 0.955796,37.2828 0.28913,36.7828 -0.5,36.5C -0.5,34.5 -0.5,32.5 -0.5,30.5C 0.5,29.8333 1.5,29.1667 2.5,28.5 Z"/></g>
<g><path style="opacity:1" fill="#362703" d="M 15.5,29.5 C 15.8333,29.5 16.1667,29.5 16.5,29.5C 20.2343,29.3227 23.9009,29.6561 27.5,30.5C 28.5063,31.3957 28.5063,32.0623 27.5,32.5C 26.1529,31.8288 24.9862,31.8288 24,32.5C 22.9141,30.153 21.5808,30.153 20,32.5C 18.4192,30.153 17.0859,30.153 16,32.5C 15.5172,31.552 15.3505,30.552 15.5,29.5 Z"/></g>
<g><path style="opacity:1" fill="#d49600" d="M 27.5,34.5 C 27.5,34.1667 27.5,33.8333 27.5,33.5C 29.6208,33.6747 31.6208,33.3414 33.5,32.5C 34.1614,31.2825 34.8281,29.9492 35.5,28.5C 36.2868,29.2421 36.9535,30.0754 37.5,31C 36.0267,31.7096 35.3601,32.8762 35.5,34.5C 32.8333,34.5 30.1667,34.5 27.5,34.5 Z"/></g>
<g><path style="opacity:1" fill="#c08700" d="M 31.5,26.5 C 32.8333,26.5 34.1667,26.5 35.5,26.5C 36.1667,26.8333 36.8333,27.1667 37.5,27.5C 38.7927,29.2959 40.2927,30.9625 42,32.5C 42.4828,33.448 42.6495,34.448 42.5,35.5C 29.1667,35.5 15.8333,35.5 2.5,35.5C 2.5,35.1667 2.5,34.8333 2.5,34.5C 4.5,34.5 6.5,34.5 8.5,34.5C 8.83333,34.5 9.16667,34.5 9.5,34.5C 15.5,34.5 21.5,34.5 27.5,34.5C 30.1667,34.5 32.8333,34.5 35.5,34.5C 35.3601,32.8762 36.0267,31.7096 37.5,31C 36.9535,30.0754 36.2868,29.2421 35.5,28.5C 34.8281,29.9492 34.1614,31.2825 33.5,32.5C 32.5345,31.1242 31.5345,29.7908 30.5,28.5C 30.8333,27.8333 31.1667,27.1667 31.5,26.5 Z"/></g>
<g><path style="opacity:1" fill="#362704" d="M 37.5,27.5 C 37.8333,27.5 38.1667,27.5 38.5,27.5C 40.4628,28.9599 42.2962,30.6266 44,32.5C 44.765,34.0657 44.5983,35.3991 43.5,36.5C 29.8333,36.5 16.1667,36.5 2.5,36.5C 2.5,36.1667 2.5,35.8333 2.5,35.5C 15.8333,35.5 29.1667,35.5 42.5,35.5C 42.6495,34.448 42.4828,33.448 42,32.5C 40.2927,30.9625 38.7927,29.2959 37.5,27.5 Z"/></g>
<g><path style="opacity:1" fill="#edb000" d="M 7.5,28.5 C 7.46056,29.5832 7.12723,30.5832 6.5,31.5C 7.19251,32.5178 7.85917,33.5178 8.5,34.5C 6.5,34.5 4.5,34.5 2.5,34.5C 3.41938,31.9108 5.08605,29.9108 7.5,28.5 Z"/></g>
<g><path style="opacity:1" fill="#402d04" d="M 30.5,28.5 C 31.5345,29.7908 32.5345,31.1242 33.5,32.5C 31.6208,33.3414 29.6208,33.6747 27.5,33.5C 27.5,33.1667 27.5,32.8333 27.5,32.5C 28.5063,32.0623 28.5063,31.3957 27.5,30.5C 28.5,29.8333 29.5,29.1667 30.5,28.5 Z"/></g>
<g><path style="opacity:0.984" fill="#815d02" d="M 15.5,29.5 C 15.3505,30.552 15.5172,31.552 16,32.5C 17.0859,30.153 18.4192,30.153 20,32.5C 21.5808,30.153 22.9141,30.153 24,32.5C 24.9862,31.8288 26.1529,31.8288 27.5,32.5C 27.5,32.8333 27.5,33.1667 27.5,33.5C 22.1667,33.5 16.8333,33.5 11.5,33.5C 11.5,32.5 11.5,31.5 11.5,30.5C 12.7079,29.7659 14.0413,29.4326 15.5,29.5 Z"/></g>
<g><path style="opacity:1" fill="#e4a300" d="M 11.5,30.5 C 11.5,31.5 11.5,32.5 11.5,33.5C 16.8333,33.5 22.1667,33.5 27.5,33.5C 27.5,33.8333 27.5,34.1667 27.5,34.5C 21.5,34.5 15.5,34.5 9.5,34.5C 9.6596,32.847 10.3263,31.5137 11.5,30.5 Z"/></g>
</svg>
