<svg width="250" height="250" viewBox="0 0 250 250" fill="none" xmlns="http://www.w3.org/2000/svg">
<rect width="250" height="250" fill="white"/>
<path d="M205.342 159C207.328 157.613 212.119 153.054 210.332 144.729C211.92 135.611 213.787 113.451 208.545 97.7526C200.999 101.122 182.571 107.267 169.227 104.888C154.286 102.225 133.132 90.9742 101.911 92.0756C98.2761 92.2038 94.5052 92.4995 90.5919 92.9955C87.9018 93.3364 87.3857 93.6807 85.2304 94.1847C81.4682 95.0645 75.5739 96.4001 72.3123 97.7526C47.806 107.915 37.4038 130.114 40.6991 144.729C36.5291 150.08 37.7205 156.027 40.6991 159H205.342Z" fill="white"/>
<path d="M210.332 144.729C212.119 153.054 207.328 157.613 205.342 159H40.6991C37.7205 156.027 36.5291 150.08 40.6991 144.729M210.332 144.729H117.771H88.5808H75.6988M210.332 144.729C211.92 135.611 213.787 113.451 208.545 97.7526C200.999 101.122 182.571 107.267 169.227 104.888C154.286 102.225 133.132 90.9742 101.911 92.0756M40.6991 144.729C37.4038 130.114 47.806 107.915 72.3123 97.7526M40.6991 144.729H75.6988M85.2304 94.1847C87.3857 93.6807 87.9018 93.3364 90.5918 92.9955C94.5052 92.4995 98.2761 92.2038 101.911 92.0756M85.2304 94.1847C92.379 95.9686 98.5745 102.866 101.911 111.429M85.2304 94.1847C81.4682 95.0645 75.5739 96.4001 72.3123 97.7526M101.911 92.0756C105.758 94.1661 113.885 100.726 115.612 110.24M72.3123 97.7526C76.3703 99.2758 84.1864 103.66 87.3857 110.24M88.5808 113.808C88.3456 112.556 87.9333 111.366 87.3857 110.24M87.3857 110.24C72.7671 115.393 49.9637 129.506 75.6988 144.729" stroke="#1D1D1D" stroke-width="5" stroke-linecap="round" stroke-linejoin="round"/>
</svg>
