<svg width="250" height="250" viewBox="0 0 250 250" fill="none" xmlns="http://www.w3.org/2000/svg">
<rect width="250" height="250" fill="white"/>
<path d="M53.208 196.968C55.0851 182.702 63.3757 155.046 67.2863 143.001C117.593 124.23 171.466 142.375 192.114 153.795C191.363 177.822 198.371 212.298 201.969 226.533C191.801 227.784 167.524 227.283 151.756 215.27C135.989 203.256 79.4875 198.063 53.208 196.968Z" fill="black" stroke="#1D1D1D" stroke-width="5" stroke-linecap="round" stroke-linejoin="round"/>
<path d="M184.174 71.1172C170.217 91.221 161.921 127.618 161.921 127.618C122.548 145.507 63.6916 149.787 50.1482 143.714C44.1884 141.049 27.2663 127.543 41.6449 103.76L60.1251 74.7494C60.1251 74.7494 70.421 56.8605 82.1248 51.5014C93.0589 46.4895 136.383 43.7865 123.459 26.564C123.459 26.564 136.814 23.2603 145.44 23.0163C154.065 22.7722 164.868 25.3533 164.868 25.3533C153.427 47.9067 183.029 38.9154 204.512 57.0389C225.986 75.1623 207.854 135.511 203.236 144.737C198.618 153.963 189.204 161.622 176.543 165.348C163.882 169.074 108.62 142.898 108.62 142.898" fill="white"/>
<path d="M184.174 71.1172C170.217 91.221 161.921 127.618 161.921 127.618C122.548 145.507 63.6916 149.787 50.1482 143.714C44.1884 141.049 27.2663 127.543 41.6449 103.76L60.1251 74.7494C60.1251 74.7494 70.421 56.8605 82.1248 51.5014C93.0589 46.4895 136.383 43.7865 123.459 26.564C123.459 26.564 136.814 23.2603 145.44 23.0163C154.065 22.7722 164.868 25.3533 164.868 25.3533C153.427 47.9067 183.029 38.9154 204.512 57.0389C225.986 75.1623 207.854 135.511 203.236 144.737C198.618 153.963 189.204 161.622 176.543 165.348C163.882 169.074 108.62 142.898 108.62 142.898" stroke="#1D1D1D" stroke-width="5" stroke-miterlimit="10" stroke-linecap="round" stroke-linejoin="round"/>
<path d="M95.7152 64.7913C95.7152 64.7913 91.426 70.4883 87.3433 81.6946Z" fill="white"/>
<path d="M95.7152 64.7913C95.7152 64.7913 91.426 70.4883 87.3433 81.6946" stroke="#1D1D1D" stroke-width="5" stroke-miterlimit="10" stroke-linecap="round" stroke-linejoin="round"/>
<path d="M84.1801 82.4644C85.3063 74.2052 96.0684 54.6207 102.013 45.8608C106.142 43.6083 110.46 43.0452 111.398 43.0452C106.893 49.4273 105.141 60.4084 104.828 65.1012C128.104 62.4732 160.047 65.7269 171.466 67.9169C174.751 59.9391 179.913 49.4586 182.259 45.8608C186.952 45.8608 189.611 47.4251 191.175 48.6765C187.89 55.2464 185.544 65.1012 184.136 71.2018L175.689 85.2801L168.65 102.174L138.147 101.236L104.828 103.582C97.9455 97.9506 83.0538 90.7237 84.1801 82.4644Z" fill="black" stroke="#1D1D1D" stroke-width="5" stroke-linecap="round" stroke-linejoin="round"/>
<path d="M110.422 102.822C102.989 100.194 90.2338 85.4303 87.343 81.6948C84.4523 77.9594 77.7322 76.148 64.4329 75.7632C53.3861 75.4347 54.8691 81.479 54.8691 81.479C48.1678 82.5959 48.9749 87.9081 48.9749 87.9081C48.9749 87.9081 43.9537 90.3201 45.9528 94.0368C45.9528 94.0368 40.5186 97.5189 44.01 101.029" fill="white"/>
<path d="M68.4687 82.1547C68.4687 82.1547 60.5379 80.3809 54.8691 81.479Z" fill="white"/>
<path d="M66.3007 87.5983C66.3007 87.5983 56.1643 85.3552 48.9749 87.9081Z" fill="white"/>
<path d="M64.7427 94.356C64.7427 94.356 58.9424 90.9677 45.9528 94.0368Z" fill="white"/>
<path d="M110.422 102.822C102.989 100.194 90.2338 85.4303 87.343 81.6948C84.4523 77.9594 77.7322 76.148 64.4329 75.7632C53.3861 75.4347 54.8691 81.479 54.8691 81.479M54.8691 81.479C48.1678 82.5959 48.9749 87.9081 48.9749 87.9081M54.8691 81.479C60.5379 80.3809 68.4687 82.1547 68.4687 82.1547M48.9749 87.9081C48.9749 87.9081 43.9537 90.3201 45.9528 94.0368M48.9749 87.9081C56.1643 85.3552 66.3007 87.5983 66.3007 87.5983M45.9528 94.0368C45.9528 94.0368 40.5186 97.5189 44.01 101.029M45.9528 94.0368C58.9424 90.9677 64.7427 94.356 64.7427 94.356" stroke="#1D1D1D" stroke-width="5" stroke-miterlimit="10" stroke-linecap="round" stroke-linejoin="round"/>
<path d="M43.2966 101.16C56.6523 98.5512 60.8664 101.808 60.8664 101.808C72.9831 110.396 93.0306 105.384 110.422 102.822C127.813 100.25 163.957 101.892 168.143 102.249" fill="white"/>
<path d="M43.2966 101.16C56.6523 98.5512 60.8664 101.808 60.8664 101.808C72.9831 110.396 93.0306 105.384 110.422 102.822C127.813 100.25 163.957 101.892 168.143 102.249" stroke="#1D1D1D" stroke-width="5" stroke-miterlimit="10" stroke-linecap="round" stroke-linejoin="round"/>
</svg>
